<?xml version="1.0" encoding="utf-8"?>
<!-- Svg Vector Icons : http://www.onlinewebfonts.com/icon -->
<!DOCTYPE svg PUBLIC "-//W3C//DTD SVG 1.1//EN" "http://www.w3.org/Graphics/SVG/1.1/DTD/svg11.dtd">
<svg version="1.1" xmlns="http://www.w3.org/2000/svg" xmlns:xlink="http://www.w3.org/1999/xlink" x="0px" y="0px" viewBox="0 0 1000 1000" enable-background="new 0 0 1000 1000" xml:space="preserve">
<metadata> Svg Vector Icons : http://www.onlinewebfonts.com/icon </metadata>
<g><g transform="translate(0.000000,512.000000) scale(0.100000,-0.100000)"><path d="M4613.6,4995.8C3444,4853.9,2358.7,4313.2,1541.9,3469.5C738.5,2637.4,251.5,1609.6,121.1,466.8c-17.3-151.5-24.9-295.3-19.2-322.1c11.5-47.9,15.3-47.9,209-49.8c753.6-3.8,2164.8,1.9,2178.2,9.6c9.6,5.8,26.8,82.5,38.3,168.7c30.7,212.8,90.1,429.5,174.5,640.4c335.6,839.8,1121.7,1489.8,1994.1,1649c293.4,53.7,295.3,53.7,320.2,103.5c19.2,38.3,23,297.2,21.1,1175.4c-5.8,1092.9-7.7,1129.4-42.2,1156.2C4951.1,5030.3,4891.6,5028.4,4613.6,4995.8z"/><path d="M5424.7,4332.4c0-283.8-24.9-255,239.7-276.1c513.9-40.3,1154.3-249.3,1645.2-535c1190.7-694.1,1959.6-1896.3,2082.3-3252c93.9-1027.7-197.5-2047.8-826.4-2891.5c-176.4-237.8-586.7-648.1-824.5-824.5c-1656.6-1234.8-3928.8-1100.6-5409.1,320.2c-303,291.4-521.5,571.4-742.1,949.1c-283.8,483.2-494.7,1144.7-531.1,1662.4c-5.7,92-17.3,176.4-23,187.9c-15.3,23-94,28.8-322.1,24.9l-176.4-3.8l9.6-99.7c72.9-744,193.7-1186.9,477.4-1771.7C1563-3276,2565.8-4156.1,3720.1-4539.6c554.1-184.1,910.8-241.6,1493.7-241.6c774.6-1.9,1380.6,136.2,2061.2,467.9c479.4,233.9,870.5,513.9,1255.9,901.2c387.3,385.4,667.3,776.6,901.2,1255.9C9763.8-1475.5,9901.9-869.6,9900-95c0,797.7-159.2,1457.3-519.6,2145.6c-755.5,1449.6-2199.3,2398.7-3834.9,2519.5l-120.8,9.6V4332.4z"/><path d="M4935.7,2223.2c-418-55.6-822.6-224.3-1152.4-479.4c-159.1-122.7-402.7-387.3-513.9-558C2999.1,767.9,2886,388.2,2886-104.6c0-650,224.3-1188.8,686.4-1650.9c462.1-462.1,1000.9-686.4,1650.9-686.4c650,0,1188.8,224.3,1650.9,686.4c464,464,686.5,997.1,686.5,1650.9c0,653.9-222.4,1186.9-686.5,1650.9c-441,442.9-956.8,667.3-1583.8,688.4C5169.7,2238.5,5010.5,2234.7,4935.7,2223.2z M5386.3,1717c72.9-36.4,130.4-113.1,153.4-203.3c59.5-220.5-159.2-442.9-377.7-383.5c-153.4,42.2-239.7,153.4-239.7,308.7c0,182.2,124.6,306.8,306.8,306.8C5284.7,1745.7,5355.7,1732.3,5386.3,1717z M4017.3,961.5c199.4-90.1,255-329.8,113.1-496.6c-65.2-76.7-143.8-105.5-264.6-95.9c-180.2,15.3-281.9,128.5-281.9,318.3c0,120.8,57.5,209,172.6,268.4C3858.1,1007.5,3913.7,1007.5,4017.3,961.5z M6709.4,934.7c170.7-90.1,222.4-312.5,107.4-464c-140-182.2-391.1-168.7-525.4,28.8c-38.3,55.6-44.1,86.3-38.3,174.5c9.6,130.4,67.1,218.6,176.4,268.4C6534.9,990.3,6609.7,988.4,6709.4,934.7z M5530.1,558.9c157.2-72.9,283.8-199.4,360.5-362.4c53.7-115.1,61.4-147.7,61.4-301s-7.7-186-61.4-301c-76.7-163-203.2-289.5-366.2-366.2c-115-53.7-147.6-61.4-301-61.4c-153.4,0-186,7.7-301,61.4c-163,76.7-289.5,203.2-366.2,366.2c-53.7,115-61.4,147.6-61.4,301s7.7,186,61.4,301c97.8,207.1,285.7,364.3,498.5,418C5186.9,647.1,5394,624,5530.1,558.9z M4046-599.3c34.5-23,84.4-72.9,109.3-109.3c38.3-55.6,44.1-86.3,38.3-176.4c-9.6-136.1-74.8-228.2-197.5-274.2c-358.6-138.1-600.2,366.2-270.4,567.6C3812.1-539.8,3961.7-541.7,4046-599.3z M6701.7-605c94-44.1,147.6-128.5,157.2-251.2c13.4-170.6-63.3-285.7-226.3-333.6c-145.7-44.1-312.5,44.1-372,197.5c-55.6,136.1,0,302.9,126.6,379.6C6465.8-564.8,6611.6-562.8,6701.7-605z M5340.3-1358.6c314.4-143.8,218.6-596.3-126.6-596.3c-345.1,0-441,454.4-126.5,596.3c44.1,19.2,99.7,36.4,126.5,36.4C5240.6-1322.1,5296.2-1339.4,5340.3-1358.6z"/></g></g>
</svg>