<?xml version="1.0" encoding="utf-8"?>
<!-- Svg Vector Icons : http://www.onlinewebfonts.com/icon -->
<!DOCTYPE svg PUBLIC "-//W3C//DTD SVG 1.1//EN" "http://www.w3.org/Graphics/SVG/1.1/DTD/svg11.dtd">
<svg version="1.1" xmlns="http://www.w3.org/2000/svg" xmlns:xlink="http://www.w3.org/1999/xlink" x="0px" y="0px" viewBox="0 0 1000 1000" enable-background="new 0 0 1000 1000" xml:space="preserve">
<metadata> Svg Vector Icons : http://www.onlinewebfonts.com/icon </metadata>
<g><g transform="translate(0.000000,382.000000) scale(0.100000,-0.100000)"><path d="M4464.1,2473.9c-232.4-9.6-776-63.4-1056.4-103.7c-1098.7-157.5-2172.4-499.4-3000.3-952.7c-122.9-67.2-242-136.4-265.1-155.6l-42.3-34.6L874.1-115.3c424.5-739.5,1025.7-1782.5,1333-2318.4l559-971.9l36.5,67.2c59.6,111.4,232.4,249.7,420.7,341.9c186.3,90.3,555.1,197.8,710.7,205.5l94.1,5.8l265.1-426.4l265.1-426.4l-65.3-97.9c-213.2-316.9-142.1-747.2,159.4-970c320.8-238.2,791.4-159.4,1010.3,170.9C5902.8-4174,5777.9-3690,5391.8-3494c-103.7,51.9-126.8,55.7-326.5,55.7h-213.2l-201.7,326.5c-111.4,180.5-209.4,340-215.1,357.3c-9.6,26.9,17.3,32.7,194,42.3c626.2,38.4,1356.1-15.4,1811.3-132.5c382.2-99.9,703-303.5,770.2-491.7l25-69.1l1333.1,2314.6C9300.7,180.5,9900,1225.4,9900,1231.2c0,38.4-595.4,351.5-952.7,501.3C7633.4,2285.7,6096.8,2539.3,4464.1,2473.9z M5791.4,2103.2c1229.3-94.1,2376-386.1,3346.1-850.9c167.1-78.8,280.4-144.1,274.7-157.5c-11.5-34.6-2203.2-3839.7-2220.5-3857c-7.7-9.6-55.7,9.6-107.6,42.2c-220.9,134.5-566.6,240.1-1031.5,313.1c-243.9,38.4-345.8,42.2-983.5,44.2c-389.9,0-745.3-5.8-787.5-13.5l-78.8-15.4L3234.8-826C2702.7,34.5,2259,739.4,2251.3,739.4c-19.2,0-284.3-169-284.3-182.5c0-3.8,414.9-680,922-1500.2c509-820.2,922-1494.4,918.1-1496.3c-3.8-1.9-74.9-19.2-159.4-38.4c-217.1-48-512.9-153.7-680-242c-76.8-42.2-144.1-73-146-71.1C2793-2750.7,582.1,1108.2,586,1112.1c25,23.1,434.1,217.1,624.3,297.7c908.5,380.3,1880.5,601.2,3090.6,699.2C4492.9,2126.3,5559,2120.5,5791.4,2103.2z M5209.4-3805.2c103.7-42.2,174.8-119.1,205.5-224.7c40.3-134.5,15.4-240.1-84.5-345.8c-73-80.7-142.1-109.5-257.4-109.5c-232.4,0-401.5,217.1-341.9,437.9C4788.7-3839.8,5015.4-3722.6,5209.4-3805.2z"/></g></g>
</svg>