<svg xmlns="http://www.w3.org/2000/svg" viewBox="0 0 80 100" fill="none" x="0px" y="0px"><path fill-rule="evenodd" clip-rule="evenodd" d="M22.5039 44.5714H16.4704C17.6352 57.7755 28.7892 68.2013 42.2853 68.2013C56.5514 68.2013 68.2006 56.5519 68.2006 42.2857C68.2006 28.7854 57.8442 17.6285 44.5712 16.4695V22.504C32.3808 22.504 22.5039 32.381 22.5039 44.5714ZM44.5712 8V12.6586C59.8849 13.8308 71.9992 26.6781 71.9992 42.2857C72.0836 58.6623 58.7461 72 42.2853 72C26.6778 72 13.8306 59.8855 12.6586 44.5714H8C8 24.3726 24.3725 8 44.5712 8ZM52.2687 34.5351C47.377 29.6312 39.4175 29.6312 34.5258 34.5351C29.6341 39.439 29.6341 47.4182 34.5258 52.3221C39.4175 57.226 47.377 57.226 52.2687 52.3221C57.2434 47.4182 57.2434 39.439 52.2687 34.5351ZM39.2517 35.6156C40.0808 35.2 41.0758 35.4494 41.5732 36.2805C41.9878 37.1117 41.739 38.1091 40.9099 38.6078C40.6612 38.774 40.3296 38.774 40.0808 38.774C39.5005 38.774 38.9201 38.4416 38.5884 37.8597C38.091 37.1117 38.4226 36.1143 39.2517 35.6156ZM36.3498 44.9247C37.2619 44.9247 38.0081 44.1766 38.0081 43.2623C38.0081 42.3481 37.2619 41.5169 36.3498 41.5169C35.4378 41.5169 34.6087 42.2649 34.6087 43.1792C34.6087 44.0935 35.3549 44.9247 36.2669 44.9247H36.3498ZM41.0758 50.4104C40.7441 50.9091 40.2467 51.2416 39.6663 51.2416C39.3346 51.2416 39.0859 51.1584 38.7543 50.9922C38.0081 50.4935 37.7593 49.4961 38.1739 48.6649C38.6713 47.9169 39.6663 47.6675 40.4954 48.0831C41.3245 48.5818 41.5732 49.5792 41.0758 50.4104ZM43.3973 39.8545C41.4074 39.8545 39.8321 41.4338 39.8321 43.4286C39.8321 45.4234 41.4074 47.0857 43.3973 47.0026C45.3871 47.0026 46.9624 45.4234 46.9624 43.4286C46.9624 41.4338 45.3871 39.8545 43.3973 39.8545ZM47.5428 51.2416C47.2941 51.4078 47.0453 51.4078 46.7137 51.4078C46.1333 51.4078 45.5529 51.0753 45.2213 50.4935C44.8067 49.6623 45.0555 48.6649 45.8846 48.1662C46.7137 47.7507 47.7086 48.0831 48.1232 48.8312C48.7036 49.7455 48.3719 50.826 47.5428 51.2416ZM46.2991 38.774C46.6308 38.9403 46.8795 39.0234 47.2112 39.0234C47.7915 39.0234 48.289 38.774 48.6206 38.2753C49.1181 37.4442 48.8694 36.4468 48.1232 35.9481C48.1232 35.8649 48.0403 35.8649 48.0403 35.8649C47.2112 35.3662 46.2162 35.6156 45.7188 36.4468C45.2213 37.2779 45.47 38.2753 46.2991 38.774ZM50.5276 45.3403C49.5327 45.3403 48.7865 44.5091 48.8694 43.5948C48.8694 42.6805 49.6985 41.9325 50.6105 41.9325C51.5225 41.9325 52.2687 42.7636 52.2687 43.6779C52.1858 44.6753 51.4396 45.3403 50.5276 45.3403Z" fill="black"/><text x="0" y="95" fill="#000000" font-size="5px" font-weight="bold" font-family="'Helvetica Neue', Helvetica, Arial-Unicode, Arial, Sans-serif">Created by Iconsetpro</text><text x="0" y="100" fill="#000000" font-size="5px" font-weight="bold" font-family="'Helvetica Neue', Helvetica, Arial-Unicode, Arial, Sans-serif">from the Noun Project</text></svg>