<svg xmlns="http://www.w3.org/2000/svg" viewBox="0 0 88 88"><title>Artboard-40</title><g id="people"><path d="M86,57H81V6a1,1,0,0,0-1-1H48a1,1,0,0,0-1,1V57H39.2045l2.7779-14.8154A.9994.9994,0,0,0,41,41H39V34.2793a5.014,5.014,0,0,0-4.02-4.9033L29,28.18V25.4783A9.037,9.037,0,0,0,32.4933,20.95,3.9913,3.9913,0,0,0,36,17a3.0033,3.0033,0,0,0-3-3V10a9,9,0,0,0-18,0v4a3.0033,3.0033,0,0,0-3,3,3.9913,3.9913,0,0,0,3.5067,3.95A9.037,9.037,0,0,0,19,25.4783V28.18L13.02,29.376A5.014,5.014,0,0,0,9,34.2793V41H7a.9994.9994,0,0,0-.9824,1.1846L8.7955,57H2a1,1,0,0,0-1,1v6a1,1,0,0,0,1,1H5V86a1,1,0,0,0,2,0V65H81V86a1,1,0,0,0,2,0V65h3a1,1,0,0,0,1-1V58A1,1,0,0,0,86,57ZM67,40v3l-2.4-1.8a.998.998,0,0,0-1.1992,0L61,43V33h6ZM49,15H59v4a1,1,0,0,0,1.6.8L64,17.25l3.4,2.55A1,1,0,0,0,69,19V15H79V31H49Zm0,18H59v6H49Zm20,0H79v6H69ZM79,13H69V7H79ZM67,17l-2.4-1.8a.998.998,0,0,0-1.1992,0L61,17V7h6ZM49,7H59v6H49Zm0,34H59v4a1,1,0,0,0,1.6.8L64,43.25l3.4,2.55A1,1,0,0,0,69,45V41H79V57H49ZM28.7186,13.7089a10.6915,10.6915,0,0,0-9.4372,0l-1.1885-1.5845-.5468-.7292a16.221,16.221,0,0,1,12.9078,0l-.5468.7292ZM34,17a1.9988,1.9988,0,0,1-1,1.7314V16A1.0006,1.0006,0,0,1,34,17ZM24,3a7.0064,7.0064,0,0,1,6.97,6.4151,18.3371,18.3371,0,0,0-13.9408,0A7.0064,7.0064,0,0,1,24,3ZM15,18.7314A1.9988,1.9988,0,0,1,14,17a1.0006,1.0006,0,0,1,1-1v2.7314ZM17,18V14l1.2,1.6a1,1,0,0,0,.2734.2506,1.0181,1.0181,0,0,0,1.041.0073h0a8.8332,8.8332,0,0,1,8.9682-.0013A1.03,1.03,0,0,0,29.8,15.6L31,14v4a7,7,0,0,1-14,0Zm7,9a8.9408,8.9408,0,0,0,3-.525V29a3,3,0,0,1-6,0V26.475A8.9408,8.9408,0,0,0,24,27ZM11,34.2793a3.0084,3.0084,0,0,1,2.4121-2.9424l5.7315-1.1455a5.0005,5.0005,0,0,0,9.7128,0l5.7315,1.1455A3.0084,3.0084,0,0,1,37,34.2793V41H33V38a1,1,0,0,0-2,0v3H17V38a1,1,0,0,0-2,0v3H11ZM8.2051,43h31.59L37.17,57H10.83ZM85,63H3V59H85Z" style="fill:#1d1b1e"/><path d="M24,47a3,3,0,1,0,3,3A3.0033,3.0033,0,0,0,24,47Zm0,4a1,1,0,1,1,1-1A1.0006,1.0006,0,0,1,24,51Z" style="fill:#1d1b1e"/><path d="M63,50H52a1,1,0,0,0,0,2H63a1,1,0,0,0,0-2Z" style="fill:#1d1b1e"/><path d="M57,53H52a1,1,0,0,0,0,2h5a1,1,0,0,0,0-2Z" style="fill:#1d1b1e"/><path d="M52,26H63a1,1,0,0,0,0-2H52a1,1,0,0,0,0,2Z" style="fill:#1d1b1e"/><path d="M57,27H52a1,1,0,0,0,0,2h5a1,1,0,0,0,0-2Z" style="fill:#1d1b1e"/></g></svg>