<?xml version="1.0" encoding="utf-8"?>
<!-- Generator: Adobe Illustrator 16.0.0, SVG Export Plug-In . SVG Version: 6.00 Build 0)  -->
<!DOCTYPE svg PUBLIC "-//W3C//DTD SVG 1.1//EN" "http://www.w3.org/Graphics/SVG/1.1/DTD/svg11.dtd">
<svg version="1.1" id="Layer_1" xmlns="http://www.w3.org/2000/svg" xmlns:xlink="http://www.w3.org/1999/xlink" x="0px" y="0px"
	 width="128px" height="128px" viewBox="0 0 128 128" enable-background="new 0 0 128 128" xml:space="preserve">
<g>
	<g>
		<g>
			<g>
				<path fill="#282D33" d="M53.391,52.163c-4.936,0-8.951-3.987-8.951-8.888c0-4.901,4.016-8.889,8.951-8.889
					c4.937,0,8.952,3.987,8.952,8.889C62.343,48.176,58.327,52.163,53.391,52.163z M53.391,38.397c-2.724,0-4.939,2.188-4.939,4.878
					s2.216,4.877,4.939,4.877c2.725,0,4.941-2.188,4.941-4.877S56.115,38.397,53.391,38.397z"/>
			</g>
			<g>
				<path fill="#282D33" d="M73.003,70.788c-4.937,0-8.952-3.987-8.952-8.889c0-4.9,4.016-8.888,8.952-8.888
					c4.936,0,8.95,3.987,8.95,8.888C81.953,66.801,77.938,70.788,73.003,70.788z M73.003,57.022c-2.724,0-4.941,2.188-4.941,4.877
					c0,2.69,2.218,4.878,4.941,4.878s4.939-2.188,4.939-4.878C77.942,59.21,75.727,57.022,73.003,57.022z"/>
			</g>
			<g>
				
					<rect x="61.395" y="32.371" transform="matrix(0.7038 0.7104 -0.7104 0.7038 56.2797 -29.403)" fill="#282D33" width="4.011" height="40.838"/>
			</g>
		</g>
	</g>
	<g>
		<g>
			<g>
				<g>
					<polygon fill="#282D33" points="74.838,128 64.143,103.032 67.83,101.454 76.066,120.682 85.187,110.64 98.788,111.112 
						91.825,94.86 95.513,93.281 104.963,115.341 86.906,114.713 					"/>
				</g>
			</g>
			<g>
				<g>
					<polygon fill="#282D33" points="53.422,127.988 41.117,114.916 23.076,115.855 32.451,92.855 36.165,94.369 29.175,111.521 
						42.765,110.813 52.063,120.693 59.844,101.605 63.559,103.12 					"/>
				</g>
			</g>
		</g>
		<g>
			<path fill="#282D33" d="M63.999,105.156c-2.214,0-3.856-1.692-5.305-3.188c-0.703-0.726-1.767-1.822-2.28-1.901
				c-0.738-0.002-1.919,0.628-2.88,1.137c-1.475,0.782-3,1.591-4.604,1.591c-0.46,0-0.904-0.068-1.321-0.203
				c-2.092-0.672-3.12-2.779-4.027-4.639c-0.445-0.911-1.118-2.29-1.593-2.531c-0.058-0.029-0.244-0.099-0.695-0.099
				c-0.661,0-1.49,0.146-2.366,0.301c-1.006,0.177-2.045,0.36-3.053,0.36c-1.242,0-2.237-0.283-3.045-0.865
				c-1.774-1.281-2.096-3.594-2.38-5.634c-0.14-1.008-0.352-2.532-0.731-2.909c-0.384-0.38-1.929-0.59-2.951-0.73
				c-2.053-0.28-4.38-0.597-5.671-2.353c-1.292-1.756-0.881-4.052-0.518-6.076c0.181-1.006,0.453-2.524,0.206-3.004
				c-0.24-0.465-1.633-1.132-2.554-1.573c-1.876-0.9-4.002-1.92-4.685-4.005c-0.674-2.057,0.431-4.104,1.405-5.908
				c0.49-0.907,1.23-2.278,1.144-2.824c-0.079-0.496-1.182-1.547-1.912-2.242c-1.511-1.439-3.223-3.069-3.223-5.283
				c0-2.211,1.711-3.841,3.222-5.279c0.73-0.695,1.834-1.747,1.913-2.245c0.086-0.543-0.653-1.913-1.144-2.819
				c-0.976-1.806-2.081-3.854-1.404-5.912c0.683-2.08,2.806-3.1,4.68-3.999c0.922-0.442,2.314-1.11,2.557-1.58
				c0.244-0.475-0.028-1.994-0.209-2.998c-0.362-2.025-0.773-4.32,0.516-6.078c1.293-1.756,3.619-2.074,5.672-2.354
				c1.022-0.14,2.569-0.351,2.955-0.733c0.376-0.373,0.587-1.894,0.727-2.899c0.283-2.043,0.604-4.358,2.383-5.641
				c0.808-0.582,1.805-0.866,3.049-0.866c1.008,0,2.047,0.183,3.051,0.36c0.876,0.154,1.703,0.3,2.363,0.3
				c0.45,0,0.636-0.069,0.695-0.099c0.474-0.24,1.147-1.618,1.593-2.53c0.908-1.859,1.937-3.966,4.032-4.641
				c0.415-0.134,0.858-0.202,1.317-0.202c1.605,0,3.131,0.81,4.606,1.591c0.962,0.51,2.157,1.145,2.798,1.145
				c0.596-0.087,1.66-1.184,2.364-1.909C60.144,1.693,61.786,0,64,0c2.213,0,3.854,1.691,5.302,3.185
				c0.705,0.727,1.77,1.823,2.286,1.904c0.003,0,0.006,0,0.009,0c0.722,0,1.912-0.631,2.868-1.138
				c1.475-0.782,3.001-1.592,4.607-1.592c0.46,0,0.903,0.068,1.318,0.202c2.095,0.675,3.123,2.781,4.03,4.64
				c0.446,0.913,1.118,2.291,1.594,2.531c0.06,0.03,0.246,0.1,0.698,0.1c0.661,0,1.488-0.146,2.363-0.3
				c1.005-0.176,2.043-0.358,3.05-0.358c1.243,0,2.24,0.283,3.048,0.866c1.774,1.278,2.097,3.591,2.381,5.632
				c0.141,1.008,0.353,2.53,0.732,2.907c0.385,0.382,1.931,0.593,2.951,0.731c2.054,0.28,4.382,0.599,5.669,2.355
				c1.29,1.753,0.879,4.048,0.516,6.073c-0.181,1.005-0.453,2.525-0.206,3.004c0.241,0.469,1.635,1.137,2.556,1.578
				c1.876,0.899,4.001,1.918,4.684,4.002c0.674,2.057-0.433,4.104-1.407,5.91c-0.49,0.906-1.23,2.277-1.146,2.822
				c0.079,0.496,1.185,1.548,1.915,2.244c1.51,1.438,3.222,3.068,3.222,5.277c0,2.214-1.713,3.844-3.225,5.283
				c-0.73,0.695-1.834,1.746-1.913,2.243c-0.085,0.543,0.655,1.915,1.146,2.822c0.974,1.806,2.078,3.853,1.405,5.909
				c-0.684,2.084-2.809,3.104-4.686,4.004c-0.921,0.441-2.314,1.11-2.556,1.577c-0.247,0.479,0.025,1.999,0.206,3.005
				c0.363,2.024,0.775,4.319-0.517,6.075c-1.288,1.756-3.616,2.072-5.671,2.353c-1.021,0.14-2.567,0.351-2.954,0.732
				c-0.374,0.372-0.586,1.896-0.726,2.902c-0.284,2.042-0.606,4.356-2.381,5.636c-0.808,0.583-1.805,0.866-3.048,0.866
				c-1.008,0-2.047-0.184-3.052-0.36c-0.876-0.154-1.702-0.3-2.363-0.3c-0.45,0-0.636,0.069-0.694,0.099
				c-0.476,0.241-1.148,1.619-1.594,2.531c-0.908,1.858-1.937,3.965-4.032,4.64c-0.416,0.135-0.858,0.202-1.317,0.202
				c-1.605,0-3.133-0.81-4.608-1.593c-0.96-0.509-2.155-1.143-2.793-1.143c-0.6,0.085-1.663,1.183-2.367,1.909
				C67.854,103.465,66.212,105.156,63.999,105.156z M56.33,96.051c0.238,0,0.473,0.018,0.702,0.053
				c1.841,0.287,3.214,1.704,4.542,3.074c0.714,0.736,1.908,1.968,2.425,1.968c0.515,0,1.709-1.23,2.422-1.966
				c1.329-1.371,2.702-2.789,4.546-3.076c0.229-0.035,0.463-0.053,0.701-0.053c1.636,0,3.18,0.818,4.673,1.609
				c0.944,0.502,2.121,1.126,2.729,1.126c0.558-0.16,1.33-1.741,1.745-2.592c0.841-1.721,1.709-3.5,3.387-4.349
				c0.707-0.358,1.526-0.531,2.506-0.531c1.012,0,2.052,0.183,3.06,0.36c0.874,0.154,1.698,0.299,2.355,0.299
				c0.546,0,0.696-0.103,0.702-0.107c0.385-0.277,0.625-2.006,0.754-2.935c0.265-1.901,0.537-3.868,1.874-5.199
				c1.344-1.326,3.323-1.597,5.237-1.857c0.942-0.129,2.696-0.368,2.979-0.754c0.271-0.369-0.034-2.075-0.198-2.991
				c-0.325-1.812-0.693-3.864,0.177-5.553c0.859-1.663,2.652-2.523,4.386-3.354c0.859-0.413,2.458-1.18,2.608-1.637
				c0.135-0.421-0.715-1.998-1.124-2.755c-0.878-1.626-1.873-3.47-1.577-5.353c0.292-1.842,1.725-3.205,3.109-4.523
				c0.692-0.658,1.979-1.884,1.979-2.378c0-0.49-1.286-1.715-1.977-2.372c-1.387-1.32-2.82-2.686-3.111-4.525
				c-0.297-1.884,0.699-3.728,1.578-5.354c0.409-0.756,1.26-2.331,1.125-2.754c-0.15-0.456-1.747-1.222-2.605-1.634
				c-1.735-0.832-3.53-1.692-4.389-3.358c-0.868-1.687-0.5-3.738-0.176-5.549c0.164-0.917,0.471-2.624,0.199-2.992
				c-0.283-0.386-2.035-0.625-2.977-0.754c-1.915-0.261-3.896-0.531-5.233-1.856c-1.343-1.331-1.629-3.389-1.882-5.204
				c-0.129-0.928-0.369-2.654-0.754-2.932c-0.008-0.005-0.157-0.108-0.702-0.108c-0.656,0-1.481,0.146-2.354,0.299
				c-1.007,0.177-2.047,0.36-3.059,0.36c-0.98,0-1.801-0.174-2.509-0.532c-1.678-0.849-2.546-2.628-3.388-4.351
				c-0.414-0.849-1.187-2.43-1.655-2.581c-0.737,0.003-1.873,0.614-2.817,1.115c-1.493,0.791-3.037,1.61-4.673,1.61
				c-0.237,0-0.472-0.018-0.699-0.053c-1.846-0.289-3.219-1.706-4.549-3.075C65.71,5.242,64.516,4.011,64,4.011
				c-0.517,0-1.712,1.232-2.426,1.969c-1.328,1.369-2.701,2.784-4.541,3.073c-1.838,0.28-3.669-0.651-5.378-1.558
				c-0.945-0.501-2.12-1.123-2.729-1.123c-0.559,0.16-1.331,1.742-1.745,2.591c-0.841,1.722-1.711,3.502-3.389,4.35
				c-0.707,0.357-1.525,0.53-2.504,0.53c-1.011,0-2.052-0.183-3.059-0.36c-0.873-0.154-1.698-0.299-2.355-0.299
				c-0.546,0-0.696,0.104-0.702,0.107c-0.388,0.279-0.628,2.01-0.757,2.939c-0.264,1.901-0.537,3.867-1.875,5.195
				c-1.34,1.328-3.321,1.599-5.237,1.86c-0.942,0.128-2.697,0.368-2.981,0.755c-0.271,0.368,0.036,2.077,0.201,2.995
				c0.323,1.809,0.69,3.857-0.174,5.543c-0.861,1.667-2.654,2.527-4.388,3.359c-0.857,0.412-2.454,1.178-2.604,1.635
				c-0.135,0.425,0.715,1.998,1.123,2.754c0.879,1.626,1.874,3.47,1.576,5.354c-0.293,1.84-1.725,3.203-3.109,4.521
				c-0.69,0.658-1.977,1.883-1.977,2.375c0,0.495,1.287,1.721,1.979,2.379c1.384,1.318,2.814,2.681,3.107,4.518
				c0.299,1.887-0.697,3.731-1.575,5.358c-0.409,0.758-1.26,2.334-1.124,2.754c0.15,0.458,1.749,1.225,2.607,1.637
				c1.733,0.831,3.525,1.69,4.384,3.352c0.87,1.688,0.502,3.74,0.178,5.551c-0.164,0.916-0.471,2.623-0.2,2.991
				c0.285,0.388,2.04,0.628,2.983,0.756c1.913,0.262,3.893,0.532,5.23,1.854c1.344,1.333,1.617,3.303,1.882,5.206
				c0.13,0.929,0.369,2.656,0.755,2.935c0.004,0.003,0.152,0.105,0.697,0.105c0.656,0,1.482-0.146,2.355-0.299
				c1.009-0.178,2.051-0.361,3.063-0.361c0.979,0,1.8,0.173,2.507,0.53c1.678,0.85,2.546,2.63,3.387,4.352
				c0.414,0.85,1.185,2.43,1.652,2.58c0.005,0,0.01,0,0.016,0c0.7,0,1.864-0.617,2.801-1.114
				C53.148,96.869,54.692,96.051,56.33,96.051z"/>
		</g>
		<g>
			<path fill="#282D33" d="M64.004,87.341c-19.335,0-35.065-15.594-35.065-34.764c0-19.167,15.73-34.761,35.065-34.761
				c19.331,0,35.059,15.594,35.059,34.761C99.063,71.747,83.335,87.341,64.004,87.341z M64.004,21.827
				c-17.123,0-31.055,13.795-31.055,30.75c0,16.958,13.932,30.753,31.055,30.753c17.12,0,31.048-13.795,31.048-30.753
				C95.052,35.622,81.124,21.827,64.004,21.827z"/>
		</g>
	</g>
</g>
</svg>
