<?xml version="1.0" encoding="utf-8"?>
<!-- Generator: Adobe Illustrator 16.0.0, SVG Export Plug-In . SVG Version: 6.00 Build 0)  -->
<!DOCTYPE svg PUBLIC "-//W3C//DTD SVG 1.1//EN" "http://www.w3.org/Graphics/SVG/1.1/DTD/svg11.dtd">
<svg version="1.1" id="Layer_1" xmlns="http://www.w3.org/2000/svg" xmlns:xlink="http://www.w3.org/1999/xlink" x="0px" y="0px"
	 width="128px" height="128px" viewBox="0 0 128 128" enable-background="new 0 0 128 128" xml:space="preserve">
<g>
	<g>
		<g>
			<path fill="#282D33" d="M113.823,51.345l-4-0.001l0.001-4.85L98.21,45.52l-0.282-1.494c-0.78-4.121-2.277-8.022-4.451-11.595
				l-0.746-1.228l7.718-9.176l-6.896-6.938l-8.892,7.57l-1.262-0.863c-3.438-2.352-7.237-4.042-11.291-5.024l-1.403-0.34
				L69.71,4.454h-9.741l-0.968,11.682l-1.492,0.286c-4.1,0.785-7.974,2.29-11.517,4.473l-1.238,0.763l-9.116-7.762l-6.898,6.937
				l7.527,8.949l-0.846,1.251c-2.342,3.465-4.024,7.289-4.998,11.365l-0.336,1.407l-11.91,1l-0.002,4.852l-4-0.002l0.004-8.528
				l12.718-1.068c0.984-3.531,2.454-6.881,4.384-9.991l-7.958-9.461L35.413,8.45l9.742,8.295c3.168-1.79,6.557-3.109,10.108-3.936
				l1.023-12.355h17.105l1.063,12.8c3.508,0.99,6.832,2.465,9.916,4.399l9.408-8.009l12.086,12.159l-8.241,9.798
				c1.784,3.196,3.1,6.61,3.921,10.185l12.282,1.03L113.823,51.345z"/>
		</g>
		<g>
			<path fill="#282D33" d="M80.891,50.562h-4c0-7.156-5.782-12.977-12.89-12.977c-7.107,0-12.889,5.821-12.889,12.977h-4
				c0-9.361,7.577-16.977,16.889-16.977S80.891,41.201,80.891,50.562z"/>
		</g>
	</g>
	<g>
		<g>
			<rect x="12.19" y="69.681" fill="#282D33" width="102.943" height="4"/>
		</g>
		<g>
			<rect y="69.681" fill="#282D33" width="6.096" height="4"/>
		</g>
		<g>
			<rect x="121.906" y="69.681" fill="#282D33" width="6.094" height="4"/>
		</g>
		<g>
			<rect x="23.059" y="64.188" fill="#282D33" width="4" height="14.986"/>
		</g>
		<g>
			<rect x="12.19" y="93.866" fill="#282D33" width="102.943" height="4"/>
		</g>
		<g>
			<rect y="93.866" fill="#282D33" width="6.096" height="4"/>
		</g>
		<g>
			<rect x="121.906" y="93.866" fill="#282D33" width="6.094" height="4"/>
		</g>
		<g>
			<rect x="93.832" y="88.373" fill="#282D33" width="4" height="14.987"/>
		</g>
		<g>
			<rect x="12.19" y="118.052" fill="#282D33" width="102.943" height="4"/>
		</g>
		<g>
			<rect y="118.052" fill="#282D33" width="6.096" height="4"/>
		</g>
		<g>
			<rect x="121.906" y="118.052" fill="#282D33" width="6.094" height="4"/>
		</g>
		<g>
			<rect x="52.857" y="112.558" fill="#282D33" width="4" height="14.988"/>
		</g>
	</g>
</g>
</svg>
