<svg xmlns="http://www.w3.org/2000/svg" viewBox="0 0 64 64"><title>Artboard-25</title><g id="Gift_discount" data-name="Gift discount"><path d="M59,48H45.46a7.2553,7.2553,0,0,1-1.84,3.12,7.2426,7.2426,0,0,1-10.24,0l-10-10a.997.997,0,0,1,1.41-1.41l10,10a5.2467,5.2467,0,0,0,7.42-7.42l-14-14A1.0327,1.0327,0,0,0,27.5,28H17V48h2.59l9.7,9.71A1.0327,1.0327,0,0,0,30,58H59a5,5,0,0,0,0-10Z" style="fill:#232328"/><rect x="7" y="24" width="8" height="28" rx="1" ry="1" style="fill:#232328"/><path d="M0,27V49a1.0029,1.0029,0,0,0,1,1H5V26H1A1.0029,1.0029,0,0,0,0,27Z" style="fill:#232328"/><circle cx="52" cy="25" r="1" style="fill:#232328"/><path d="M34.3516,26.583a4.1983,4.1983,0,0,0,.6709,3.5127,4.3933,4.3933,0,0,0,3.2832,1.8,2.3877,2.3877,0,0,1,2.0459,1.4316,4.3358,4.3358,0,0,0,2.6689,2.4512,4.4623,4.4623,0,0,0,3.7041-.4258,2.4718,2.4718,0,0,1,2.5508,0,4.4559,4.4559,0,0,0,3.7031.4258,4.3315,4.3315,0,0,0,2.6709-2.4512A2.3876,2.3876,0,0,1,57.7,31.8955a4.3918,4.3918,0,0,0,3.2773-1.8,4.2013,4.2013,0,0,0,.669-3.52,2.2128,2.2128,0,0,1,.7764-2.2881,4.2176,4.2176,0,0,0-.0069-6.583,2.2082,2.2082,0,0,1-.7676-2.2881,4.1983,4.1983,0,0,0-.6709-3.5127,4.3933,4.3933,0,0,0-3.2832-1.8,2.3863,2.3863,0,0,1-2.0449-1.4316,4.3315,4.3315,0,0,0-2.6709-2.4512,4.4613,4.4613,0,0,0-3.7031.4258,2.4741,2.4741,0,0,1-2.5508,0,4.4494,4.4494,0,0,0-3.7031-.4258,4.3315,4.3315,0,0,0-2.6709,2.4512A2.3876,2.3876,0,0,1,38.3,10.1045a4.3918,4.3918,0,0,0-3.2773,1.8,4.2013,4.2013,0,0,0-.669,3.52,2.2128,2.2128,0,0,1-.7764,2.2881,4.2176,4.2176,0,0,0,.0069,6.583A2.2082,2.2082,0,0,1,34.3516,26.583ZM55,25a3,3,0,1,1-3-3A3.0033,3.0033,0,0,1,55,25Zm-2.707-9.707a1,1,0,0,1,1.414,1.414l-10,10a1,1,0,0,1-1.414-1.414ZM44,14a3,3,0,1,1-3,3A3.0033,3.0033,0,0,1,44,14Z" style="fill:#232328"/><circle cx="44" cy="17" r="1" style="fill:#232328"/></g></svg>