<?xml version="1.0" encoding="utf-8"?>
<!-- Generator: Adobe Illustrator 16.0.0, SVG Export Plug-In . SVG Version: 6.00 Build 0)  -->
<!DOCTYPE svg PUBLIC "-//W3C//DTD SVG 1.1//EN" "http://www.w3.org/Graphics/SVG/1.1/DTD/svg11.dtd">
<svg version="1.1" id="Layer_1" xmlns="http://www.w3.org/2000/svg" xmlns:xlink="http://www.w3.org/1999/xlink" x="0px" y="0px"
	 width="128px" height="128px" viewBox="0 0 128 128" enable-background="new 0 0 128 128" xml:space="preserve">
<g>
	<g>
		<g>
			<polygon fill="#282D33" points="122.913,68.406 96.977,68.406 96.977,45.558 116.477,45.558 116.477,49.558 100.977,49.558 
				100.977,64.406 122.913,64.406 			"/>
		</g>
		<g>
			<rect x="89.236" y="91.168" fill="#282D33" width="1.5" height="4"/>
		</g>
		<g>
			<polygon fill="#282D33" points="127.156,95.168 118.119,95.168 118.119,91.168 123.156,91.168 123.156,85.042 121.721,85.042 
				121.721,67.578 112.609,40.549 89.236,40.549 89.236,36.549 115.482,36.549 125.721,66.922 125.721,81.042 127.156,81.042 			"/>
		</g>
		<g>
			<g>
				<polygon fill="#282D33" points="91.404,83.404 87.404,83.404 87.404,25.141 6.563,25.141 6.563,83.404 2.563,83.404 
					2.563,21.141 91.404,21.141 				"/>
			</g>
		</g>
		<g>
			<rect x="35.246" y="91.221" fill="#282D33" width="16.64" height="4"/>
		</g>
		<g>
			<polygon fill="#282D33" points="91.404,95.221 80.52,95.221 80.52,91.221 87.404,91.221 87.404,83.604 4,83.604 4,91.221 
				8.168,91.221 8.168,95.221 0,95.221 0,79.604 91.404,79.604 			"/>
		</g>
		<g>
			<rect x="78.713" y="91.116" fill="#282D33" width="9.818" height="4"/>
		</g>
		<g>
			<path fill="#282D33" d="M105.759,106.859c-5.46,0-9.901-4.503-9.901-10.037c0-5.535,4.441-10.039,9.901-10.039
				s9.901,4.504,9.901,10.039C115.66,102.356,111.219,106.859,105.759,106.859z M105.759,90.783c-3.254,0-5.901,2.709-5.901,6.039
				c0,3.329,2.647,6.037,5.901,6.037s5.901-2.708,5.901-6.037C111.66,93.492,109.013,90.783,105.759,90.783z"/>
		</g>
		<g>
			<path fill="#282D33" d="M65.563,106.859c-5.46,0-9.902-4.503-9.902-10.037c0-5.535,4.442-10.039,9.902-10.039
				c5.458,0,9.898,4.504,9.898,10.039C75.461,102.356,71.021,106.859,65.563,106.859z M65.563,90.783
				c-3.254,0-5.902,2.709-5.902,6.039c0,3.329,2.648,6.037,5.902,6.037c3.252,0,5.898-2.708,5.898-6.037
				C71.461,93.492,68.814,90.783,65.563,90.783z"/>
		</g>
		<g>
			<path fill="#282D33" d="M21.187,106.859c-5.461,0-9.905-4.503-9.905-10.037c0-5.535,4.443-10.039,9.905-10.039
				c5.46,0,9.903,4.504,9.903,10.039C31.09,102.356,26.647,106.859,21.187,106.859z M21.187,90.783
				c-3.256,0-5.905,2.709-5.905,6.039c0,3.329,2.649,6.037,5.905,6.037c3.255,0,5.903-2.708,5.903-6.037
				C27.09,93.492,24.442,90.783,21.187,90.783z"/>
		</g>
		<g>
			<path fill="#282D33" d="M21.187,106.859c-5.461,0-9.905-4.503-9.905-10.037c0-5.535,4.443-10.039,9.905-10.039
				c5.46,0,9.903,4.504,9.903,10.039C31.09,102.356,26.647,106.859,21.187,106.859z M21.187,90.783
				c-3.256,0-5.905,2.709-5.905,6.039c0,3.329,2.649,6.037,5.905,6.037c3.255,0,5.903-2.708,5.903-6.037
				C27.09,93.492,24.442,90.783,21.187,90.783z"/>
		</g>
		<g>
			<rect x="117.986" y="72.378" fill="#282D33" width="10.014" height="4"/>
		</g>
	</g>
	<g>
		<rect x="18.009" y="37.726" fill="#282D33" width="21.306" height="4"/>
	</g>
</g>
</svg>
