<svg xmlns="http://www.w3.org/2000/svg" viewBox="0 0 48 48"><defs><style>.cls-1{fill:#201602;}</style></defs><title>Asset 49ldpi</title><g id="Layer_2" data-name="Layer 2"><g id="layer_1-2" data-name="layer 1"><path class="cls-1" d="M47,32a1.15,1.15,0,0,1-.26,0l-7.13-1.91A16.14,16.14,0,0,1,30.9,32L31,30A14.12,14.12,0,0,0,39,28.13a1,1,0,0,1,.76-.1l5.86,1.56L44,23.73a1,1,0,0,1,.1-.76A14,14,0,1,0,18,16c0,.32,0,.65,0,1l-2,.13c0-.36,0-.73,0-1.1a16,16,0,1,1,30.06,7.61L48,30.74A1,1,0,0,1,47,32Z"/><path class="cls-1" d="M1,48a1,1,0,0,1-.71-.29,1,1,0,0,1-.26-1l1.91-7.13a16,16,0,1,1,6.45,6.45L1.26,48A1.15,1.15,0,0,1,1,48Zm7.53-4a1,1,0,0,1,.5.14A14,14,0,1,0,3.87,39a1,1,0,0,1,.1.76L2.41,45.59,8.27,44A.75.75,0,0,1,8.53,44Z"/><rect class="cls-1" x="23" y="15" width="7" height="2"/><rect class="cls-1" x="32" y="15" width="9" height="2"/><rect class="cls-1" x="30" y="20" width="7" height="2"/><rect class="cls-1" x="23" y="10" width="10" height="2"/><rect class="cls-1" x="35" y="10" width="6" height="2"/><rect class="cls-1" x="15" y="40" width="2" height="2"/><path class="cls-1" d="M17,38H15v-.77a5.11,5.11,0,0,1,2.75-4.63A4,4,0,0,0,20,29a4.05,4.05,0,0,0-4-4,4,4,0,0,0-4,4H10a6,6,0,0,1,6-6,6.08,6.08,0,0,1,6,6,6,6,0,0,1-3.37,5.39A3.13,3.13,0,0,0,17,37.23Z"/></g></g></svg>